<svg width="3269" height="896" viewBox="0 0 3269 896" fill="none" xmlns="http://www.w3.org/2000/svg">
<path fill-rule="evenodd" clip-rule="evenodd" d="M596.486 305.453L357.38 356.969L305.865 596.078L255.323 356.969L15.2451 305.453L255.323 254.91L305.865 14.8279L357.38 254.91L596.486 305.453Z" fill="#000F9F"/>
<path fill-rule="evenodd" clip-rule="evenodd" d="M305.865 480.413L271.846 339.474L131.882 305.454L271.846 271.435L305.865 131.468L339.884 271.435L480.821 305.454L339.884 339.474L305.865 480.413Z" fill="#ED1C24"/>
<path fill-rule="evenodd" clip-rule="evenodd" d="M305.865 0.250488C474.016 0.250488 611.065 137.301 611.065 305.455C611.065 473.61 474.016 610.66 305.865 610.66C137.713 610.66 0.665039 474.582 0.665039 305.455C0.665039 137.301 137.713 0.250488 305.865 0.250488ZM305.865 14.8303C145.489 14.8303 15.2447 145.077 15.2447 305.455C15.2447 465.834 145.489 596.08 305.865 596.08C466.241 596.08 596.485 465.834 596.485 305.455C596.485 145.077 466.241 14.8303 305.865 14.8303Z" fill="#000F9F"/>
<path fill-rule="evenodd" clip-rule="evenodd" d="M305.866 378.352L289.342 322.949L233.939 305.453L289.342 288.929L305.866 233.526L323.361 288.929L378.764 305.453L323.361 322.949L305.866 378.352Z" fill="#FFF200"/>
<path d="M904.601 408.483H734.506V205.337H899.742V252.965H801.572V282.125H885.162V329.752H801.572V361.828H904.601V408.483Z" fill="#000F9F"/>
<path d="M993.05 408.483L924.04 205.337H991.106L1027.07 340.444L1064 205.337H1131.07L1060.12 408.483H993.05Z" fill="#000F9F"/>
<path d="M1218.55 205.337L1291.45 316.144L1288.53 269.489V205.337H1352.68V408.483H1290.47L1217.58 297.676L1220.49 344.332V408.483H1156.34V205.337H1218.55Z" fill="#000F9F"/>
<path d="M1585.96 264.628H1522.78C1522.78 257.824 1520.83 253.936 1515.97 251.02C1512.09 248.104 1506.25 247.132 1499.45 247.132C1484.87 247.132 1478.07 251.02 1476.12 258.796C1475.15 266.572 1482.93 272.404 1500.42 277.264C1528.61 285.04 1545.13 290.872 1550.97 292.816C1569.43 301.563 1579.15 315.171 1579.15 333.639C1579.15 336.555 1579.15 340.443 1578.18 344.331C1574.29 366.687 1561.66 385.155 1542.22 396.819C1523.75 408.482 1499.45 414.314 1471.26 414.314C1446.96 414.314 1427.52 408.482 1412.95 396.819C1399.34 386.127 1392.53 371.547 1392.53 354.051C1392.53 351.135 1392.53 348.219 1393.51 346.275H1457.66C1457.66 353.079 1460.57 358.911 1465.43 361.827C1470.29 364.743 1477.1 366.687 1483.9 366.687C1502.37 366.687 1512.09 361.827 1514.03 352.107C1515 344.331 1507.23 338.499 1489.73 333.639C1462.52 325.863 1445.02 321.003 1439.19 318.087C1420.72 309.339 1411.97 294.76 1411.97 277.264C1411.97 273.376 1411.97 269.488 1412.95 265.6C1416.83 245.188 1427.52 228.664 1446.96 217C1464.46 206.309 1486.82 200.477 1513.06 200.477C1539.3 200.477 1559.71 206.309 1572.35 218.944C1581.1 230.608 1586.93 245.188 1585.96 264.628Z" fill="#ED1C24"/>
<path d="M1657.88 408.483H1590.81L1626.78 205.337H1724.95C1750.22 205.337 1769.66 210.197 1782.29 219.917C1794.93 228.665 1800.76 242.273 1800.76 259.769C1800.76 264.629 1800.76 268.517 1799.79 274.349C1791.04 321.976 1758.97 345.304 1702.59 345.304H1668.57L1657.88 408.483ZM1677.32 297.676H1704.54C1722.03 297.676 1732.72 289.901 1735.64 274.349C1735.64 273.377 1735.64 271.433 1735.64 270.461C1735.64 258.797 1724.95 252.965 1703.56 252.965H1685.1L1677.32 297.676Z" fill="#ED1C24"/>
<path d="M2010.71 283.101H1947.53C1948.5 272.409 1946.56 264.633 1940.73 258.801C1935.87 252.969 1927.12 250.053 1917.4 250.053C1892.13 250.053 1876.58 269.493 1869.77 309.345C1867.83 317.121 1867.83 323.924 1867.83 329.756C1867.83 353.084 1878.52 363.776 1900.88 363.776C1920.32 363.776 1933.92 352.112 1940.73 329.756H2004.88C1997.1 356 1983.49 376.412 1963.08 390.992C1942.67 405.572 1919.34 413.348 1893.1 413.348C1863.94 413.348 1841.59 405.572 1826.04 391.964C1810.48 377.384 1801.74 356.972 1801.74 331.7C1801.74 323.924 1802.71 315.177 1803.68 306.429C1809.51 274.353 1824.09 248.109 1846.45 228.669C1868.8 209.23 1894.07 199.51 1923.23 199.51C1952.39 199.51 1973.78 206.314 1988.35 218.95C2002.93 231.585 2010.71 250.053 2010.71 273.381C2010.71 277.269 2010.71 280.185 2010.71 283.101Z" fill="#ED1C24"/>
<path d="M783.105 632.048V715.639H761.721V632.048H730.618V614.552H813.236V632.048H783.105ZM841.423 708.835C828.788 700.087 821.984 684.536 821.984 664.124C821.984 643.712 828.788 629.132 841.423 619.412C850.171 613.58 859.891 610.664 870.582 610.664C882.246 610.664 891.966 613.58 899.742 619.412C912.377 628.16 919.181 643.712 919.181 664.124C919.181 684.536 912.377 699.115 899.742 708.835C890.994 714.667 881.274 717.583 870.582 717.583C858.919 717.583 849.199 714.667 841.423 708.835ZM852.115 635.936C846.283 641.768 842.395 651.488 842.395 664.124C842.395 676.76 845.311 686.48 852.115 692.312C856.975 697.172 862.807 699.115 870.582 699.115C877.386 699.115 884.19 697.172 889.05 692.312C894.882 686.48 898.77 676.76 898.77 664.124C898.77 651.488 895.854 641.768 889.05 635.936C884.19 631.076 878.358 629.132 870.582 629.132C863.779 629.132 856.975 632.048 852.115 635.936ZM878.358 588.309L892.938 606.776H878.358L870.582 596.085L862.807 606.776H848.227L862.807 588.309H878.358ZM903.63 587.337C901.686 589.281 900.714 591.224 900.714 594.14H890.022C890.022 589.28 891.966 585.393 896.826 582.477C898.77 580.533 900.714 579.561 900.714 578.589C900.714 575.673 899.742 574.701 897.798 574.701C894.882 574.701 893.91 575.673 892.938 579.561H883.218C883.218 574.701 884.19 571.785 888.078 569.841C890.022 567.897 892.938 566.925 896.826 566.925C899.742 566.925 902.658 567.897 905.574 568.869C909.461 570.813 911.405 573.729 911.405 578.589C910.433 580.533 908.489 583.449 903.63 587.337ZM997.911 684.536V613.58H1017.35V714.667H995.967L954.172 642.74V714.667H934.733V613.58H957.088L997.911 684.536ZM1085.39 677.732V660.236H1128.16V714.667H1113.58L1111.63 702.032C1107.74 706.891 1103.86 709.807 1100.94 711.751C1095.11 715.639 1088.3 717.583 1080.53 717.583C1067.89 717.583 1056.23 712.723 1048.45 703.975C1038.73 694.256 1033.87 680.648 1033.87 664.124C1033.87 649.544 1037.76 636.908 1045.54 627.188C1054.29 616.496 1066.92 610.664 1083.44 610.664C1097.05 610.664 1108.72 614.552 1116.49 622.328C1123.3 629.132 1127.18 635.936 1127.18 644.684H1106.77C1106.77 641.768 1104.83 638.852 1100.94 634.964C1096.08 630.104 1091.22 628.16 1084.42 628.16C1075.67 628.16 1069.84 631.076 1064.01 636.908C1058.17 643.712 1055.26 652.46 1055.26 665.096C1055.26 677.732 1058.17 687.452 1064.98 693.284C1069.84 698.144 1076.64 700.088 1085.39 700.088C1090.25 700.088 1094.14 699.115 1098.02 696.199C1103.86 692.312 1108.72 686.48 1109.69 677.732H1085.39ZM1262.29 623.3C1269.09 630.104 1272.98 637.88 1272.98 646.628H1251.6C1250.62 641.768 1248.68 637.88 1246.74 635.936C1242.85 632.048 1237.02 629.132 1229.24 629.132C1222.44 629.132 1217.58 631.076 1212.72 635.936C1206.89 641.768 1203.97 651.488 1203.97 664.124C1203.97 673.844 1205.91 682.592 1209.8 688.424C1214.66 695.228 1220.49 699.115 1229.24 699.115C1241.88 699.115 1248.68 692.312 1251.6 679.676H1272.98C1271.04 691.34 1266.18 700.088 1258.4 706.891C1250.62 713.695 1240.9 717.583 1228.27 717.583C1214.66 717.583 1203 712.723 1195.22 703.975C1186.47 694.256 1182.59 681.62 1182.59 664.124C1182.59 646.628 1187.45 633.992 1196.19 624.272C1204.94 615.524 1215.63 610.664 1229.24 610.664C1242.85 611.636 1253.54 615.524 1262.29 623.3ZM1304.08 708.835C1291.45 700.087 1284.64 684.536 1284.64 664.124C1284.64 643.712 1291.45 629.132 1304.08 619.412C1312.83 613.58 1322.55 610.664 1333.24 610.664C1344.91 610.664 1354.63 613.58 1362.4 619.412C1375.04 628.16 1381.84 643.712 1381.84 664.124C1381.84 684.536 1375.04 699.115 1362.4 708.835C1353.65 714.667 1343.93 717.583 1333.24 717.583C1321.58 717.583 1311.86 714.667 1304.08 708.835ZM1314.77 635.936C1308.94 641.768 1305.05 651.488 1305.05 664.124C1305.05 676.76 1307.97 686.48 1314.77 692.312C1319.63 697.172 1325.47 699.115 1333.24 699.115C1340.05 699.115 1346.85 697.172 1351.71 692.312C1357.54 686.48 1361.43 676.76 1361.43 664.124C1361.43 651.488 1358.51 641.768 1351.71 635.936C1346.85 631.076 1341.02 629.132 1333.24 629.132C1326.44 629.132 1319.63 632.048 1314.77 635.936ZM1341.02 588.309L1355.6 606.776H1341.02L1333.24 596.085L1325.47 606.776H1310.89L1325.47 588.309H1341.02ZM1460.57 684.536V613.58H1480.01V714.667H1458.63L1416.83 642.74V714.667H1397.39V613.58H1419.75L1460.57 684.536ZM1548.05 677.732V660.236H1590.82V714.667H1576.24L1574.29 702.032C1570.4 706.891 1566.52 709.807 1563.6 711.751C1557.77 715.639 1550.96 717.583 1543.19 717.583C1530.55 717.583 1518.89 712.723 1511.11 703.975C1501.39 694.256 1496.53 680.648 1496.53 664.124C1496.53 649.544 1500.42 636.908 1508.2 627.188C1516.95 616.496 1529.58 610.664 1546.1 610.664C1559.71 610.664 1571.38 614.552 1579.15 622.328C1585.96 629.132 1589.84 635.936 1589.84 644.684H1568.46C1568.46 641.768 1566.52 638.852 1562.63 634.964C1557.77 630.104 1552.91 628.16 1546.1 628.16C1537.36 628.16 1531.53 631.076 1525.69 636.908C1519.86 643.712 1516.95 652.46 1516.95 665.096C1516.95 677.732 1519.86 687.452 1526.67 693.284C1531.52 698.144 1538.33 700.088 1547.08 700.088C1551.94 700.088 1555.82 699.115 1559.71 696.199C1565.54 692.312 1570.4 686.48 1571.38 677.732H1548.05ZM1692.87 632.048V715.639H1671.49V632.048H1641.36V614.552H1723.98V632.048H1692.87ZM1783.27 677.732V715.639H1761.88V677.732L1726.89 614.552H1752.16L1773.55 658.292L1793.96 614.552H1818.26L1783.27 677.732ZM1869.77 668.012H1859.08V653.432H1869.77V613.58H1914.48C1930.03 613.58 1940.73 619.412 1947.53 630.104C1952.39 638.852 1955.31 648.572 1955.31 661.208C1955.31 674.816 1952.39 686.48 1946.56 696.199C1938.78 708.835 1928.09 714.667 1912.54 714.667H1868.8V668.012H1869.77ZM1890.18 653.432H1906.71V668.012H1890.18V697.172H1910.59C1918.37 697.172 1924.2 693.284 1928.09 686.48C1931.01 680.648 1932.95 672.872 1932.95 663.152C1932.95 641.768 1925.17 631.076 1909.62 631.076H1889.21V653.432H1890.18ZM1991.27 613.58V714.667H1969.89V613.58H1991.27ZM2085.55 613.58V631.076H2032.09V652.46H2081.66V669.956H2032.09V696.199H2088.47V713.695H2010.71V612.608H2085.55V613.58ZM2055.42 588.309L2070 606.776H2055.42L2047.64 596.085L2039.87 606.776H2025.29L2039.87 588.309H2055.42ZM2054.45 724.387V740.911H2037.92V724.387H2054.45ZM2166.22 684.536V613.58H2185.66V714.667H2164.28L2122.49 642.74V714.667H2103.05V613.58H2125.4L2166.22 684.536ZM2267.31 613.58V696.199H2317.85V714.667H2245.93V613.58H2267.31ZM2426.71 608.72C2426.71 616.496 2421.85 623.3 2413.11 627.188V678.704C2413.11 703.976 2399.5 716.611 2371.31 716.611C2356.73 716.611 2346.04 712.723 2339.24 703.975C2334.38 698.144 2331.46 689.396 2331.46 679.676V612.608H2352.84V678.704C2352.84 685.508 2354.79 690.368 2358.68 694.256C2361.59 697.172 2366.45 699.115 2371.31 699.115C2384.92 699.115 2391.72 692.312 2391.72 679.676V612.608H2413.11V618.44C2416.02 615.524 2416.99 613.58 2416.99 610.664H2410.19V596.085H2425.74V608.72H2426.71ZM2380.06 726.331V742.855H2363.53V726.331H2380.06ZM2509.33 623.3C2516.13 630.104 2520.02 637.88 2520.02 646.628H2498.64C2497.67 641.768 2495.72 637.88 2493.78 635.936C2489.89 632.048 2484.06 629.132 2476.28 629.132C2469.48 629.132 2464.62 631.076 2459.76 635.936C2453.93 641.768 2451.01 651.488 2451.01 664.124C2451.01 673.844 2452.96 682.592 2456.84 688.424C2461.7 695.228 2467.54 699.115 2476.28 699.115C2488.92 699.115 2495.72 692.312 2498.64 679.676H2520.02C2518.08 691.34 2513.22 700.088 2505.44 706.891C2497.67 713.695 2487.95 717.583 2475.31 717.583C2461.7 717.583 2450.04 712.723 2442.26 703.975C2433.52 694.256 2429.63 681.62 2429.63 664.124C2429.63 646.628 2434.49 633.992 2443.24 624.272C2451.98 615.524 2462.68 610.664 2476.28 610.664C2489.89 611.636 2500.58 615.524 2509.33 623.3ZM2672.62 613.58V714.667H2653.18V630.104L2634.72 714.667H2614.3L2595.84 630.104V714.667H2576.4V613.58H2607.5L2625.97 693.284L2644.44 613.58H2672.62ZM2712.47 613.58V714.667H2691.09V613.58H2712.47ZM2806.76 613.58V631.076H2753.3V652.46H2802.87V669.956H2753.3V696.199H2809.67V713.695H2732.89V612.608H2806.76V613.58ZM2776.62 588.309L2791.2 606.776H2776.62L2768.85 596.085L2761.07 606.776H2746.49L2761.07 588.309H2776.62ZM2789.26 594.14L2770.79 575.673H2790.23L2801.9 594.14H2789.26ZM2887.43 684.536V613.58H2906.87V714.667H2885.49L2843.69 642.74V714.667H2824.25V613.58H2846.61L2887.43 684.536ZM3029.34 684.536V613.58H3048.78V714.667H3027.39L2985.6 642.74V714.667H2966.16V613.58H2988.51L3029.34 684.536ZM3090.57 694.256L3083.77 714.667H3061.41L3097.38 613.58H3121.67L3157.64 714.667H3134.31L3127.51 694.256H3090.57ZM3109.04 636.908L3096.4 676.76H3122.65L3109.04 636.908ZM3268.44 613.58V714.667H3249V630.104L3230.54 714.667H3210.12L3191.66 630.104V714.667H3172.22V613.58H3203.32L3221.79 693.284L3240.26 613.58H3268.44Z" fill="#000F9F"/>
<path d="M815.179 775.899C821.983 782.703 825.871 790.479 825.871 799.226H804.488C803.516 794.367 801.572 790.479 799.628 788.535C795.74 784.647 789.908 781.731 782.132 781.731C775.328 781.731 770.469 783.675 765.609 788.535C759.777 794.366 756.861 804.086 756.861 816.722C756.861 826.442 758.805 835.19 762.693 841.022C767.553 847.826 773.384 851.714 782.132 851.714C794.768 851.714 801.572 844.91 804.488 832.274H825.871C823.927 843.938 819.067 852.686 811.291 859.49C803.516 866.294 793.796 870.182 781.16 870.182C767.553 870.182 755.889 865.322 748.113 856.574C739.365 846.854 735.478 834.218 735.478 816.722C735.478 799.227 740.337 786.591 749.085 776.871C757.833 768.123 768.525 763.263 782.132 763.263C795.74 764.235 806.432 768.123 815.179 775.899ZM856.974 861.434C844.339 852.686 837.535 837.134 837.535 816.722C837.535 796.311 844.339 781.731 856.974 772.011C865.722 766.179 875.442 763.263 886.134 763.263C897.797 763.263 907.517 766.179 915.293 772.011C927.928 780.759 934.732 796.311 934.732 816.722C934.732 837.134 927.928 851.714 915.293 861.434C906.545 867.266 896.825 870.182 886.134 870.182C875.442 871.154 864.75 868.238 856.974 861.434ZM868.638 789.507C862.806 795.339 858.918 805.058 858.918 817.694C858.918 830.33 861.834 840.05 868.638 845.882C873.498 850.742 879.33 852.686 887.106 852.686C893.909 852.686 900.713 850.742 905.573 845.882C911.405 840.05 915.293 830.33 915.293 817.694C915.293 805.058 912.377 795.339 905.573 789.507C900.713 784.647 894.881 782.703 887.106 782.703C879.33 781.731 873.498 784.647 868.638 789.507ZM893.909 740.907L908.489 759.375H893.909L886.134 748.683L878.358 759.375H863.778L878.358 740.907H893.909ZM1013.46 837.134V766.179H1032.9V867.266H1011.52L969.723 795.339V867.266H950.284V766.179H972.639L1013.46 837.134ZM1101.91 830.33V812.834H1144.68V867.266H1130.1L1128.16 854.63C1124.27 859.49 1120.38 862.406 1117.46 864.35C1111.63 868.238 1104.83 870.182 1097.05 870.182C1084.42 870.182 1072.75 865.322 1064.98 856.574C1055.26 846.854 1050.4 833.246 1050.4 816.722C1050.4 802.142 1054.29 789.507 1062.06 779.787C1070.81 769.095 1083.44 763.263 1099.97 763.263C1113.58 763.263 1125.24 767.151 1133.01 774.927C1139.82 781.731 1143.71 788.535 1143.71 797.283H1122.32C1122.32 794.367 1120.38 791.451 1116.49 787.563C1111.63 782.703 1106.77 780.759 1099.97 780.759C1091.22 780.759 1085.39 783.675 1079.56 789.507C1073.72 796.311 1070.81 805.058 1070.81 817.694C1070.81 830.33 1073.72 840.05 1080.53 845.882C1085.39 850.742 1092.19 852.686 1100.94 852.686C1105.8 852.686 1109.69 851.714 1113.58 848.798C1119.41 844.91 1124.27 839.078 1125.24 830.33H1101.91ZM1245.76 784.647V868.238H1224.38V784.647H1194.25V767.151H1276.87V784.647H1245.76ZM1336.16 830.33V868.238H1314.77V830.33L1279.78 767.151H1305.05L1326.44 810.89L1346.85 767.151H1371.15L1336.16 830.33ZM1422.66 821.582H1411.97V807.002H1422.66V767.151H1467.37C1482.93 767.151 1493.62 772.983 1500.42 783.675C1505.28 792.422 1508.2 802.143 1508.2 814.778C1508.2 828.386 1505.28 840.05 1499.45 849.77C1491.67 862.406 1480.98 868.238 1465.43 868.238H1421.69V821.582H1422.66ZM1443.07 806.03H1459.6V820.61H1443.07V849.77H1463.49C1471.26 849.77 1477.09 845.882 1480.98 839.078C1483.9 833.246 1485.84 825.47 1485.84 815.75C1485.84 794.366 1478.07 783.675 1462.51 783.675H1442.1V806.03H1443.07ZM1544.16 767.151V868.238H1522.78V767.151H1544.16ZM1638.44 767.151V784.647H1584.98V806.03H1634.55V823.526H1584.98V849.77H1641.36V867.266H1563.6V766.179H1638.44V767.151ZM1608.31 740.907L1622.89 759.375H1608.31L1600.53 748.683L1592.76 759.375H1578.18L1592.76 740.907H1608.31ZM1607.34 876.986V893.509H1590.81V876.986H1607.34ZM1719.12 837.134V766.179H1738.55V867.266H1717.17L1675.38 795.339V867.266H1655.94V766.179H1678.29L1719.12 837.134ZM1820.2 767.151V849.77H1870.74V868.238H1798.82V767.151H1820.2ZM1979.6 762.291C1979.6 770.067 1974.74 776.871 1966 780.759V832.274C1966 857.546 1952.39 870.182 1924.2 870.182C1909.62 870.182 1898.93 866.294 1892.13 857.546C1887.27 851.714 1884.35 842.966 1884.35 833.246V766.179H1905.73V832.274C1905.73 839.078 1907.68 843.938 1911.57 847.826C1914.48 850.742 1919.34 852.686 1924.2 852.686C1937.81 852.686 1944.61 845.882 1944.61 833.246V766.179H1966V772.011C1968.91 769.095 1969.88 767.151 1969.88 764.235H1963.08V750.627H1978.63V762.291H1979.6ZM1932.95 878.93V895.453H1916.43V878.93H1932.95ZM2062.22 775.899C2069.03 782.703 2072.91 790.479 2072.91 799.226H2051.53C2050.56 794.367 2048.61 790.479 2046.67 788.535C2042.78 784.647 2036.95 781.731 2029.18 781.731C2022.37 781.731 2017.51 783.675 2012.65 788.535C2006.82 794.366 2003.9 804.086 2003.9 816.722C2003.9 826.442 2005.85 835.19 2009.74 841.022C2014.6 847.826 2020.43 851.714 2029.18 851.714C2041.81 851.714 2048.61 844.91 2051.53 832.274H2072.91C2070.97 843.938 2066.11 852.686 2058.33 859.49C2050.56 866.294 2040.84 870.182 2028.2 870.182C2014.6 870.182 2002.93 865.322 1995.16 856.574C1986.41 846.854 1982.52 834.218 1982.52 816.722C1982.52 799.227 1987.38 786.591 1996.13 776.871C2004.88 768.123 2015.57 763.263 2029.18 763.263C2042.78 764.235 2053.47 768.123 2062.22 775.899ZM2128.32 868.238V767.151H2177.89C2188.58 767.151 2197.33 770.067 2203.16 775.899C2207.05 780.759 2208.99 786.591 2208.99 792.423C2208.99 802.142 2205.1 808.946 2196.35 812.834C2207.05 816.722 2211.91 824.498 2211.91 837.134C2211.91 845.882 2208.99 852.686 2203.16 857.546C2200.24 860.462 2196.35 863.378 2192.47 864.35C2187.61 866.294 2180.8 867.266 2171.08 867.266H2128.32V868.238ZM2148.73 784.647V807.002H2174C2183.72 807.002 2188.58 803.114 2188.58 795.339C2188.58 788.535 2183.72 784.647 2173.03 784.647H2148.73ZM2148.73 823.526V850.742H2174.97C2185.66 850.742 2191.49 845.882 2191.49 836.162C2191.49 832.274 2189.55 829.358 2186.64 826.442C2183.72 824.498 2180.8 823.526 2175.94 823.526H2148.73ZM2233.29 758.403L2214.82 739.935H2234.26L2245.93 758.403H2233.29ZM2249.81 767.151V868.238H2228.43V767.151H2249.81ZM2331.46 837.134V766.179H2350.9V867.266H2329.52L2287.72 795.339V867.266H2268.28V766.179H2290.64L2331.46 837.134ZM2431.57 822.554H2391.72V868.238H2370.34V767.151H2391.72V805.058H2431.57V767.151H2452.96V868.238H2431.57V822.554ZM2555.01 784.647V868.238H2533.63V784.647H2502.53V767.151H2585.14V784.647H2555.01ZM2659.01 822.554H2619.16V868.238H2597.78V767.151H2619.16V805.058H2659.01V767.151H2680.4V868.238H2659.01V822.554ZM2781.48 767.151V833.246C2781.48 858.518 2767.88 871.154 2739.69 871.154C2725.11 871.154 2714.42 867.266 2707.61 858.518C2702.75 852.686 2699.84 843.938 2699.84 834.218V767.151H2721.22V833.246C2721.22 840.05 2723.17 844.91 2727.05 848.798C2729.97 851.714 2734.83 853.658 2739.69 853.658C2753.3 853.658 2760.1 846.854 2760.1 834.218V767.151H2781.48ZM2824.25 846.854L2817.45 867.266H2795.09L2831.05 766.179H2855.35L2891.32 867.266H2867.99L2861.19 846.854H2824.25ZM2852.44 740.907L2867.02 759.375H2852.44L2844.66 748.683L2836.89 759.375H2822.31L2836.89 740.907H2852.44ZM2842.72 789.507L2830.08 829.358H2856.33L2842.72 789.507ZM2850.49 871.154V887.678H2833.97V871.154H2850.49ZM2966.16 837.134V766.179H2985.6V867.266H2964.21L2922.42 795.339V867.266H2902.98V766.179H2925.34L2966.16 837.134Z" fill="#000F9F"/>
</svg>
